<mxfile host="app.diagrams.net" modified="2023-10-25T06:50:54.735Z" agent="Mozilla/5.0 (Windows NT 10.0; Win64; x64) AppleWebKit/537.36 (KHTML, like Gecko) Chrome/118.0.0.0 Safari/537.36" etag="DVfbTiXvOa3OkjTl1wUj" version="22.0.7" type="github">
  <diagram name="第 1 页" id="kK8LRR3wM4DtLDwokK4c">
    <mxGraphModel dx="936" dy="474" grid="1" gridSize="10" guides="1" tooltips="1" connect="1" arrows="1" fold="1" page="1" pageScale="1" pageWidth="827" pageHeight="1169" math="0" shadow="0">
      <root>
        <mxCell id="0" />
        <mxCell id="1" parent="0" />
        <mxCell id="uI9pfuBBkzXBU3NGgM5a-1" value="" style="rounded=0;whiteSpace=wrap;html=1;fillColor=#f5f5f5;fontColor=#333333;strokeColor=#666666;" vertex="1" parent="1">
          <mxGeometry x="40" y="40" width="630" height="160" as="geometry" />
        </mxCell>
        <mxCell id="uI9pfuBBkzXBU3NGgM5a-2" value="TPM市场费用全流程" style="swimlane;fontStyle=0;childLayout=stackLayout;horizontal=1;startSize=30;horizontalStack=0;resizeParent=1;resizeParentMax=0;resizeLast=0;collapsible=1;marginBottom=0;whiteSpace=wrap;html=1;" vertex="1" parent="1">
          <mxGeometry x="250" y="100" width="210" height="60" as="geometry" />
        </mxCell>
        <mxCell id="uI9pfuBBkzXBU3NGgM5a-3" value="bizdate" style="text;strokeColor=none;fillColor=default;align=left;verticalAlign=middle;spacingLeft=4;spacingRight=4;overflow=hidden;points=[[0,0.5],[1,0.5]];portConstraint=eastwest;rotatable=0;whiteSpace=wrap;html=1;" vertex="1" parent="uI9pfuBBkzXBU3NGgM5a-2">
          <mxGeometry y="30" width="210" height="30" as="geometry" />
        </mxCell>
        <mxCell id="uI9pfuBBkzXBU3NGgM5a-7" value="TPM费用全流程" style="text;html=1;strokeColor=none;fillColor=none;align=center;verticalAlign=middle;whiteSpace=wrap;rounded=0;" vertex="1" parent="1">
          <mxGeometry x="297" y="50" width="116" height="30" as="geometry" />
        </mxCell>
      </root>
    </mxGraphModel>
  </diagram>
</mxfile>
